<?xml version="1.0" standalone="no"?>
<!DOCTYPE svg PUBLIC "-//W3C//DTD SVG 20010904//EN"
 "http://www.w3.org/TR/2001/REC-SVG-20010904/DTD/svg10.dtd">
<svg version="1.0" xmlns="http://www.w3.org/2000/svg"
 width="330.000000pt" height="150.000000pt" viewBox="0 0 330.000000 150.000000"
 preserveAspectRatio="xMidYMid meet">

<g id="svgg" transform="translate(0.000000,150.000000) scale(0.100000,-0.100000)"
fill="white" stroke="none">
<path d="M409 1027 c-130 -49 -199 -199 -149 -329 25 -67 100 -141 158 -158
20 -5 135 -10 255 -10 249 0 266 4 310 72 70 108 -4 248 -130 248 -21 0 -50
-7 -65 -14 -27 -14 -28 -14 -34 12 -17 71 -65 131 -129 164 -50 26 -165 34
-216 15z m204 -22 c61 -25 104 -81 126 -162 l12 -43 37 20 c20 11 50 20 65 20
48 0 105 -39 128 -87 35 -73 14 -140 -62 -191 -33 -23 -38 -23 -259 -20 -208
3 -228 5 -265 24 -125 68 -171 205 -110 330 45 92 130 138 237 128 32 -3 73
-11 91 -19z"/>
<path d="M448 985 c-54 -30 -63 -86 -23 -133 22 -27 24 -34 14 -56 -7 -14 -19
-26 -28 -26 -40 -1 -76 -56 -66 -100 18 -81 134 -93 167 -18 l13 28 121 0
c121 0 122 0 128 -25 7 -27 52 -55 90 -55 34 0 75 38 82 76 8 45 -35 94 -83
94 -43 0 -69 -14 -86 -45 l-13 -25 -99 61 c-55 33 -104 65 -109 69 -4 5 -1 19
8 31 51 74 -37 168 -116 124z m93 -23 c51 -42 15 -122 -56 -122 -36 0 -75 37
-75 70 0 10 9 29 21 44 25 32 75 35 110 8z m68 -184 c141 -84 140 -78 21 -78
l-105 0 -17 30 c-9 16 -28 32 -42 36 -22 5 -24 9 -15 26 9 17 40 36 63 37 4 1
47 -22 95 -51z m-124 -43 c39 -38 28 -93 -22 -114 -77 -32 -139 55 -83 115 31
32 73 32 105 -1z m423 5 c59 -55 -1 -146 -78 -119 -55 20 -68 83 -24 118 34
27 74 27 102 1z"/>
<path d="M480 929 c0 -12 -8 -28 -17 -35 -16 -12 -13 -13 27 -13 40 0 43 1 28
13 -10 7 -18 23 -18 35 0 11 -4 21 -10 21 -5 0 -10 -10 -10 -21z"/>
<path d="M426 722 c-4 -7 -11 -10 -16 -7 -4 3 -10 -4 -13 -15 -3 -11 -1 -20 5
-20 5 0 7 -4 4 -9 -10 -15 34 -20 48 -5 14 14 10 58 -4 49 -5 -3 -10 0 -12 7
-3 9 -6 9 -12 0z m14 -32 c0 -5 -4 -10 -10 -10 -5 0 -10 5 -10 10 0 6 5 10 10
10 6 0 10 -4 10 -10z"/>
<path d="M834 708 c-19 -23 -19 -23 2 -5 31 26 44 21 43 -15 -1 -18 -3 -25 -6
-15 -2 9 -11 17 -19 17 -8 0 -14 -8 -14 -17 0 -15 -2 -16 -10 -3 -8 13 -10 12
-10 -2 0 -14 8 -18 35 -18 34 0 35 1 35 40 0 32 -4 40 -18 40 -11 0 -27 -10
-38 -22z"/>
<path d="M1204 785 c0 -143 2 -200 3 -127 2 73 2 190 0 260 -1 70 -3 10 -3
-133z"/>
<path d="M1440 1031 c-27 -5 -31 -8 -17 -13 14 -6 17 -21 17 -92 0 -70 -3 -87
-17 -95 -26 -15 98 -15 130 0 30 14 47 48 47 95 0 54 -24 91 -68 103 -40 12
-39 12 -92 2z m103 -31 c54 -43 39 -151 -23 -164 -61 -12 -60 -14 -60 89 l0
95 29 0 c15 0 40 -9 54 -20z"/>
<path d="M1915 1031 c-7 -12 12 -24 25 -16 11 7 4 25 -10 25 -5 0 -11 -4 -15
-9z"/>
<path d="M2001 975 c-18 -19 -19 -25 -8 -25 13 0 17 -14 19 -62 3 -62 3 -63
33 -65 27 -2 28 -2 8 7 -20 8 -23 17 -23 69 0 54 2 59 20 54 11 -3 20 0 20 6
0 6 -9 11 -19 11 -11 0 -21 7 -23 15 -2 11 -9 8 -27 -10z"/>
<path d="M1637 958 c-9 -6 -9 -8 1 -8 8 0 12 -19 12 -59 0 -38 -4 -61 -12 -64
-7 -3 5 -6 26 -6 35 -1 38 1 22 12 -13 10 -17 24 -14 62 3 48 4 50 33 50 29 0
30 -1 33 -54 2 -37 -1 -57 -10 -62 -8 -6 2 -9 27 -9 22 0 35 4 28 8 -6 4 -13
32 -14 62 -3 54 -3 55 25 58 35 4 46 -10 46 -65 0 -30 -5 -45 -17 -52 -14 -8
-10 -10 22 -10 22 0 34 3 28 6 -8 3 -13 26 -13 63 0 34 -5 62 -12 68 -15 11
-193 12 -211 0z"/>
<path d="M1915 959 c-11 -4 -14 -8 -7 -8 8 -1 12 -20 12 -60 0 -38 -4 -61 -12
-64 -7 -3 5 -6 26 -6 34 -1 37 1 23 12 -11 8 -17 30 -19 73 -3 57 -4 61 -23
53z"/>
<path d="M2098 959 c-10 -7 -10 -9 0 -9 16 0 16 -102 0 -118 -9 -9 -3 -12 28
-12 31 1 36 3 22 11 -24 14 -26 107 -2 116 9 3 20 0 24 -7 6 -9 9 -9 15 0 4 6
4 14 0 18 -9 10 -72 10 -87 1z"/>
<path d="M2213 953 c8 -10 27 -45 41 -77 l26 -59 -26 -34 c-23 -30 -24 -34 -8
-31 13 2 31 33 59 101 22 54 47 102 55 107 11 7 6 10 -19 10 -26 0 -32 -3 -24
-11 8 -8 7 -23 -5 -55 -9 -24 -19 -44 -23 -44 -3 0 -14 21 -24 46 -15 39 -15
48 -4 55 9 6 1 9 -25 9 -37 0 -38 -1 -23 -17z"/>
<path d="M1980 770 c0 -5 5 -10 10 -10 6 0 10 -37 10 -90 0 -74 -3 -91 -17
-99 -14 -8 -10 -10 22 -10 22 0 34 3 28 6 -9 3 -13 35 -13 109 0 97 -1 104
-20 104 -11 0 -20 -4 -20 -10z"/>
<path d="M2290 770 c0 -5 5 -10 10 -10 6 0 10 -37 10 -90 0 -74 -3 -91 -17
-99 -14 -8 -10 -10 22 -10 22 0 34 3 28 6 -9 3 -13 35 -13 109 0 97 -1 104
-20 104 -11 0 -20 -4 -20 -10z"/>
<path d="M2708 679 c3 -77 1 -104 -10 -110 -8 -6 1 -8 27 -8 22 0 34 3 28 6
-9 3 -13 35 -13 109 0 92 -2 104 -17 104 -16 0 -18 -10 -15 -101z"/>
<path d="M1429 761 c21 -14 16 -171 -6 -188 -14 -11 -11 -13 22 -13 33 0 36 2
22 13 -14 10 -16 23 -9 92 l8 80 28 -85 c16 -47 32 -89 36 -93 11 -13 26 13
50 88 12 39 26 74 30 79 5 4 10 -29 12 -74 2 -65 0 -84 -12 -91 -10 -6 -1 -8
30 -8 34 0 41 2 28 9 -23 14 -37 178 -17 191 10 6 5 9 -16 9 -29 0 -31 -3 -59
-85 -16 -47 -32 -82 -36 -78 -3 4 -17 43 -30 86 l-24 77 -35 0 c-25 0 -32 -3
-22 -9z"/>
<path d="M1715 685 c-48 -47 -20 -125 43 -125 38 0 66 32 66 75 0 69 -63 97
-109 50z m74 -9 c7 -8 11 -32 9 -53 -3 -36 -5 -38 -38 -38 -29 0 -36 5 -44 27
-20 56 38 106 73 64z"/>
<path d="M1872 698 c-22 -22 -13 -48 23 -69 19 -12 35 -27 35 -35 0 -18 -56
-19 -64 -1 -3 6 -5 3 -3 -8 3 -24 50 -33 73 -14 24 20 16 48 -21 70 -41 25
-46 49 -10 49 14 0 25 -5 25 -11 0 -5 5 -7 10 -4 16 10 -8 35 -34 35 -12 0
-27 -5 -34 -12z"/>
<path d="M2065 699 c4 -6 -3 -21 -15 -34 l-23 -24 33 -40 c17 -23 40 -41 49
-41 14 0 9 10 -21 42 l-39 43 35 32 36 33 -31 0 c-19 0 -28 -4 -24 -11z"/>
<path d="M2165 697 c-12 -10 -14 -16 -7 -21 7 -4 12 -2 12 3 0 20 48 12 55 -9
8 -26 -1 -40 -28 -40 -33 0 -49 -15 -45 -41 3 -22 8 -24 63 -25 33 -1 54 1 48
3 -8 3 -13 24 -13 58 0 76 -37 107 -85 72z m63 -94 c-4 -22 -58 -31 -58 -10 0
20 10 27 37 27 18 0 24 -5 21 -17z"/>
<path d="M2391 684 c-27 -34 -27 -78 -1 -104 21 -21 74 -27 85 -10 4 6 -6 10
-24 10 -19 0 -35 8 -45 22 -21 29 -12 38 40 38 37 0 44 3 44 19 0 51 -66 67
-99 25z m69 2 c0 -2 3 -11 6 -20 5 -13 -2 -16 -35 -16 -39 0 -41 1 -31 20 9
17 60 30 60 16z"/>
<path d="M2527 698 c-9 -6 -9 -8 1 -8 16 0 16 -102 0 -118 -9 -9 -4 -12 22
-12 26 0 31 3 22 12 -7 7 -12 36 -12 66 l0 53 33 -3 c31 -3 32 -4 35 -57 2
-37 -1 -57 -10 -62 -8 -6 2 -9 27 -9 32 1 36 3 23 11 -14 7 -18 23 -18 63 0
32 -5 58 -13 64 -14 12 -91 12 -110 0z"/>
<path d="M2785 699 c4 -6 -3 -21 -16 -35 l-22 -24 30 -38 c16 -20 39 -38 51
-40 16 -3 12 5 -20 39 l-41 43 37 33 36 33 -31 0 c-19 0 -28 -4 -24 -11z"/>
<path d="M2882 694 c-29 -20 -31 -93 -4 -117 45 -41 112 -5 112 58 0 63 -57
95 -108 59z m82 -35 c5 -14 6 -38 2 -53 -5 -20 -12 -26 -34 -26 -38 0 -52 17
-52 60 0 45 6 52 44 48 23 -2 33 -10 40 -29z"/>
</g>
</svg>
