<?xml version="1.0" standalone="no"?>
<!DOCTYPE svg PUBLIC "-//W3C//DTD SVG 20010904//EN"
 "http://www.w3.org/TR/2001/REC-SVG-20010904/DTD/svg10.dtd">
<svg version="1.0" xmlns="http://www.w3.org/2000/svg"
 width="100px" height="150.000000pt" viewBox="0 0 330.000000 150.000000"
 preserveAspectRatio="xMidYMid meet">

<g transform="translate(0.000000,150.000000) scale(0.100000,-0.100000)"
fill="blue" stroke="none">
<path d="M367 1052 c-23 -26 -25 -172 -2 -172 12 0 15 14 15 64 0 100 -10 96
270 96 204 0 241 -2 254 -16 13 -12 16 -39 16 -125 0 -90 3 -109 15 -109 23 0
22 242 -1 264 -13 14 -53 16 -283 16 -247 0 -269 -1 -284 -18z"/>
<!-- <path d="M1245 1061 c-16 -5 -22 -9 -12 -10 15 -1 17 -13 17 -101 0 -84 -3
-101 -17 -109 -14 -8 -7 -10 32 -11 105 0 162 35 172 107 6 47 -9 87 -40 108
-29 19 -110 27 -152 16z m111 -16 c24 -10 39 -25 51 -52 31 -74 -14 -144 -94
-147 l-38 -1 -3 94 c-1 52 -1 100 2 108 7 17 38 17 82 -2z"/> -->
<!-- <path d="M1800 1055 c0 -8 5 -15 10 -15 6 0 10 7 10 15 0 8 -4 15 -10 15 -5 0
-10 -7 -10 -15z"/> -->
<!-- <path d="M1897 1004 c-10 -13 -13 -24 -8 -24 6 0 11 -33 13 -72 3 -68 5 -73
27 -76 13 -2 28 1 34 7 8 8 3 11 -16 11 -27 0 -27 1 -27 64 0 63 1 65 28 69
l27 4 -27 2 c-18 1 -28 7 -30 20 -3 18 -4 17 -21 -5z"/> -->
<!-- <path d="M1544 985 c-18 -14 -18 -14 4 -8 37 9 52 -13 52 -77 0 -47 -3 -59
-17 -63 -10 -3 0 -5 22 -5 22 0 34 2 28 5 -9 3 -13 27 -13 67 0 48 -4 67 -18
79 -23 21 -33 21 -58 2z"/> -->
<!-- <path d="M1644 985 c-18 -14 -18 -14 4 -8 37 9 52 -13 52 -77 0 -47 -3 -59
-17 -63 -10 -3 0 -5 22 -6 22 0 35 3 29 7 -6 4 -13 38 -16 75 -5 84 -28 106
-74 72z"/> -->
<!-- <path d="M1790 990 c-10 -6 -11 -10 -2 -10 8 0 12 -21 12 -69 0 -58 -3 -70
-17 -74 -10 -3 2 -5 27 -5 25 0 37 2 28 5 -15 4 -18 17 -18 84 0 80 -3 87 -30
69z"/>
<path d="M2076 984 c-9 -8 -16 -18 -16 -22 0 -3 5 -1 11 5 6 6 18 9 25 6 8 -3
14 1 14 11 0 20 -14 20 -34 0z"/>
<path d="M1483 979 c25 -14 25 -124 0 -138 -14 -8 -10 -10 22 -10 33 0 37 1
22 10 -15 9 -18 22 -17 67 2 82 2 82 -22 82 -21 -1 -21 -2 -5 -11z"/> -->
<!-- <path d="M2013 983 c14 -4 17 -16 17 -73 0 -57 -3 -69 -17 -73 -10 -3 5 -5 32
-4 28 0 40 2 27 4 -21 4 -23 10 -22 56 3 96 3 97 -27 96 -17 -1 -21 -3 -10 -6z"/>
<path d="M2152 978 c15 -13 58 -123 58 -150 0 -22 -35 -49 -54 -42 -11 4 -16
1 -16 -10 0 -21 33 -20 52 2 14 14 48 86 48 98 0 2 -5 3 -11 2 -6 -2 -19 19
-30 46 -16 39 -17 51 -7 57 8 6 0 9 -21 9 -29 0 -32 -2 -19 -12z"/>
<path d="M2258 982 c7 -5 10 -17 7 -28 -6 -18 -6 -18 6 1 7 11 17 23 23 27 6
4 -2 8 -19 8 -19 0 -25 -3 -17 -8z"/> -->
<!-- <path d="M2246 915 c-9 -26 -7 -32 5 -12 6 10 9 21 6 23 -2 3 -7 -2 -11 -11z"/> -->
<path d="M242 696 l3 -141 118 -3 117 -3 0 28 c0 28 -1 28 -54 25 -47 -3 -53
-6 -49 -23 4 -13 0 -19 -12 -19 -12 0 -16 6 -12 20 4 17 -1 19 -47 22 l-51 3
0 105 0 105 113 0 c74 0 112 4 112 11 0 7 -41 11 -120 11 l-121 0 3 -141z"/>
<!-- <path d="M1858 758 c8 -8 12 -48 12 -114 0 -89 -2 -103 -17 -107 -10 -3 2 -5
27 -5 25 0 37 2 28 5 -16 4 -18 18 -18 119 0 111 -1 114 -22 114 -17 0 -19 -3
-10 -12z"/> -->
<!-- <path d="M2213 756 c14 -11 17 -29 17 -109 0 -81 -3 -98 -17 -106 -14 -8 -10
-10 22 -10 32 0 36 2 23 10 -15 9 -18 26 -18 119 0 107 -1 110 -22 110 -21 -1
-22 -2 -5 -14z"/> -->
<!-- <path d="M2663 756 c14 -11 17 -30 17 -114 0 -87 -2 -101 -17 -105 -10 -3 2
-5 27 -5 25 0 37 2 28 5 -16 4 -18 18 -18 119 l0 114 -27 0 c-25 -1 -26 -2
-10 -14z"/> -->
<!-- <path d="M1255 754 c6 -2 8 -36 3 -92 -3 -48 -7 -95 -7 -104 -1 -9 -9 -19 -18
-21 -10 -3 2 -5 27 -5 38 -1 41 1 21 9 -20 8 -22 14 -17 40 3 17 6 56 6 85 0
30 4 54 9 54 5 0 24 -40 42 -90 17 -49 35 -90 38 -90 3 0 17 28 30 63 13 34
31 78 39 97 15 35 15 35 23 10 4 -14 7 -57 8 -97 1 -60 -2 -72 -16 -76 -10 -3
5 -5 32 -5 37 -1 45 1 29 8 -19 7 -22 19 -26 107 -4 67 -2 100 6 105 6 4 -1 8
-15 8 -24 0 -30 -8 -59 -82 -18 -46 -36 -87 -40 -91 -4 -5 -22 32 -40 82 -30
84 -35 91 -59 90 -14 0 -21 -2 -16 -5z"/> -->
<path d="M860 633 c0 -112 0 -113 24 -113 15 0 26 7 29 20 4 16 0 20 -19 20
-23 0 -24 2 -24 85 l0 86 58 -3 57 -3 0 -80 c0 -79 0 -80 -26 -83 -39 -5 -28
-42 12 -42 l29 0 0 113 0 113 -70 0 -70 0 0 -113z"/>
<!-- <path d="M1768 690 c12 -5 22 -16 22 -25 0 -8 5 -15 10 -15 6 0 10 7 10 15 0
15 -30 35 -52 34 -7 0 -3 -4 10 -9z"/>
<path d="M2098 684 c27 -18 30 -61 5 -67 -17 -4 -17 -5 0 -6 11 -1 17 -9 17
-25 0 -39 11 -56 34 -56 19 1 19 2 4 11 -14 8 -18 23 -18 69 0 61 -15 90 -48
90 -13 0 -12 -3 6 -16z"/> -->
<!-- <path d="M2378 680 c35 -33 28 -50 -18 -50 -44 0 -47 4 -24 40 14 22 12 22
-10 -3 -35 -38 -31 -103 8 -129 16 -11 59 -9 76 3 12 8 10 9 -7 4 -33 -9 -58
2 -72 31 -16 35 -7 44 45 44 37 0 44 3 44 20 0 22 -33 60 -52 60 -6 0 -2 -9
10 -20z"/> -->
<!-- <path d="M2524 685 c-18 -14 -18 -14 4 -8 37 9 52 -13 52 -77 0 -47 -3 -59
-17 -63 -10 -3 0 -5 22 -6 22 0 35 3 29 7 -6 4 -13 38 -16 75 -5 84 -28 106
-74 72z"/> -->
<!-- <path d="M2873 676 c-56 -48 -28 -146 42 -146 55 0 89 63 65 121 -22 53 -63
63 -107 25z m66 -3 c52 -43 27 -144 -32 -130 -46 12 -60 112 -18 137 22 13 26
12 50 -7z"/> -->
<!-- <path d="M1946 679 c3 -6 -6 -23 -20 -38 l-26 -27 36 -42 c22 -26 44 -42 57
-41 22 0 22 1 2 11 -11 5 -33 26 -50 45 l-29 35 37 34 c36 33 36 34 11 34 -15
0 -23 -4 -18 -11z"/> -->
<!-- <path d="M2052 678 c-14 -14 -16 -28 -3 -28 5 0 11 9 14 20 6 23 5 24 -11 8z"/>
<path d="M2463 679 c25 -14 25 -124 0 -138 -14 -8 -10 -10 22 -10 33 0 37 1
22 10 -15 9 -18 22 -17 67 2 82 2 82 -22 82 -21 -1 -21 -2 -5 -11z"/>
<path d="M2753 683 c4 -3 -5 -22 -19 -40 l-26 -34 23 -27 c34 -39 51 -52 66
-52 7 0 -5 19 -27 41 -22 23 -40 44 -40 48 0 4 13 21 29 39 28 30 29 32 9 32
-12 0 -18 -3 -15 -7z"/>
<path d="M1720 655 c0 -11 18 -36 41 -56 45 -38 46 -59 3 -59 -16 0 -27 7 -33
22 -5 15 -10 18 -15 9 -11 -17 12 -41 39 -41 41 0 55 11 55 41 0 21 -7 32 -29
44 -17 8 -37 25 -45 37 -15 21 -16 21 -16 3z"/> -->
<path d="M522 633 c2 -13 15 -19 46 -21 58 -4 59 -34 2 -51 -22 -6 -40 -16
-40 -22 0 -17 67 -39 117 -39 110 0 160 39 83 64 -19 6 -36 19 -38 29 -3 15 5
17 62 17 59 0 66 2 66 20 0 19 -7 20 -151 20 -138 0 -150 -1 -147 -17z"/>
<!-- <path d="M2050 596 c-19 -24 -8 -61 19 -64 13 -2 28 1 34 7 7 7 4 8 -10 5 -11
-3 -25 1 -33 10 -11 14 -10 20 5 36 10 11 13 20 8 20 -6 0 -16 -7 -23 -14z"/> -->
</g>
</svg>
